<?xml version="1.0" encoding="UTF-8" standalone="no"?><!DOCTYPE svg PUBLIC "-//W3C//DTD SVG 1.1//EN" "http://www.w3.org/Graphics/SVG/1.1/DTD/svg11.dtd"><svg width="100%" height="100%" viewBox="0 0 16000 9000" version="1.1" xmlns="http://www.w3.org/2000/svg" xmlns:xlink="http://www.w3.org/1999/xlink" xml:space="preserve" xmlns:serif="http://www.serif.com/" style="fill-rule:evenodd;clip-rule:evenodd;stroke-linejoin:round;stroke-miterlimit:2;"><circle cx="10633.5" cy="5981.67" r="12250" style="fill:#fff;"/><circle cx="10633.5" cy="5981.67" r="8312.5" style="fill:#59afe1;fill-opacity:0.3;"/><circle cx="10633.5" cy="5981.67" r="4125" style="fill:#59afe1;fill-opacity:0.3;"/><g><path d="M12673.6,8333.74l-1749.89,0l0,-297.943c0,-327.737 268.45,-595.886 596.554,-595.886l556.783,-0c328.105,-0 596.554,268.149 596.554,595.886l0,297.943" style="fill:#88fa4e;fill-rule:nonzero;"/><path d="M12673.7,8373.61l-1750.07,0c-19.887,0 -39.774,-19.868 -39.774,-39.737l-0,-298.029c-0,-352.667 283.392,-635.795 636.39,-635.795l556.842,0c352.997,0 636.389,283.128 636.389,635.795l0,298.029c0,19.869 -19.887,39.737 -39.773,39.737m-1710.3,-79.475l1670.53,0l0,-258.291c0,-307.963 -248.59,-556.32 -556.841,-556.32l-556.842,-0c-308.252,-0 -556.842,248.357 -556.842,556.32l-0,258.291" style="fill:#205081;fill-rule:nonzero;"/><path d="M11083.6,7693.79c-49.526,59.513 -84.195,128.944 -99.053,203.334l198.108,0l-39.622,138.863l208.014,257.886l59.432,0l-183.25,-337.236c-4.953,-9.919 -4.953,-19.838 -4.953,-29.756l24.764,-89.269l-143.629,-0c-9.905,-0 -24.763,-4.959 -29.716,-14.878c-9.905,-9.919 -9.905,-19.837 -9.905,-34.715l19.81,-94.229" style="fill:#61d836;fill-rule:nonzero;"/><path d="M11410.8,8294.08l-59.673,0l29.837,39.664l54.699,0l-24.863,-39.664m-308.308,-684.211c-79.563,79.329 -134.263,178.489 -164.1,287.567l44.755,-0c14.918,-74.371 49.727,-143.784 99.454,-203.281l0,-9.916c4.973,-24.79 14.918,-49.58 19.891,-74.37" style="fill:#205081;fill-rule:nonzero;"/><path d="M12515.3,7693.79l19.909,94.229c-0,14.878 -0,24.796 -9.955,34.715c-4.976,9.919 -19.907,14.878 -29.862,14.878l-144.336,-0l24.885,89.269c0,9.918 0,19.837 -4.976,29.756l-184.153,337.236l59.725,0l209.038,-257.886l-39.816,-138.863l199.083,0c-14.931,-74.39 -49.77,-143.821 -99.542,-203.334" style="fill:#61d836;fill-rule:nonzero;"/><path d="M12246.2,8294.08l-59.674,0l-24.863,39.664l54.7,0l29.837,-39.664m248.635,-684.211c4.972,24.79 14.918,49.58 19.891,74.37l-0,9.916c49.727,59.497 84.536,128.91 99.453,203.281l44.755,-0c-29.836,-109.078 -84.536,-208.238 -164.099,-287.567" style="fill:#205081;fill-rule:nonzero;"/><path d="M11620.3,7282.55c-244.178,-0 -453.472,173.546 -498.321,406.593l-19.933,109.087l199.328,-0l-39.866,138.836l219.261,396.677l0,-912.356l139.531,19.833l-0,-158.67" style="fill:#88fa4e;fill-rule:nonzero;"/><path d="M11481.4,8373.61c-14.897,0 -29.795,-9.92 -34.76,-19.841l-218.491,-396.816c-4.966,-9.92 -4.966,-19.841 -4.966,-29.761l24.828,-89.283l-144.006,0c-9.93,0 -24.828,-4.961 -29.794,-14.881c-9.931,-9.921 -9.931,-19.841 -9.931,-34.721l19.863,-104.165c49.657,-257.93 273.114,-441.457 536.297,-441.457c19.863,-0 39.726,19.841 39.726,39.681l-0,158.727c-0,9.92 -4.965,24.801 -14.897,29.761c-9.932,9.921 -19.863,9.921 -29.794,9.921l-94.349,-14.881l-0,868.034c-0,19.841 -9.932,34.722 -29.795,39.682l-9.931,0m-173.8,-441.458l134.075,248.01l-0,-758.91c-0,-9.921 4.965,-24.801 14.896,-29.761c9.932,-9.92 19.864,-9.92 29.795,-9.92l94.348,14.88l0,-74.403c-203.594,19.841 -377.394,173.607 -417.12,376.975l-9.931,59.523l148.971,-0c14.897,-0 24.829,4.96 29.794,14.881c9.932,9.92 9.932,24.8 9.932,34.72l-34.76,124.005" style="fill:#205081;fill-rule:nonzero;"/><path d="M11979.1,7282.55c243.189,-0 451.636,173.546 496.303,406.593l19.853,109.087l-198.522,-0l39.705,138.836l-218.374,396.677l0,-912.356l-138.965,19.833l0,-158.67" style="fill:#88fa4e;fill-rule:nonzero;"/><path d="M12118,8373.61l-9.931,0c-19.863,-4.96 -29.794,-19.841 -29.794,-39.682l-0,-868.034l-94.349,14.881c-9.932,-0 -19.862,-0 -29.794,-9.921c-9.932,-4.96 -14.898,-19.841 -14.898,-29.761l0,-158.727c0,-19.84 19.864,-39.681 39.726,-39.681c263.183,-0 486.641,183.527 536.298,441.457l19.863,104.165c-0,14.88 -0,24.8 -9.931,34.721c-4.966,9.92 -19.864,14.881 -29.795,14.881l-144.005,0l24.828,89.283c0,9.92 0,19.841 -4.966,29.761l-218.492,396.816c-4.966,9.921 -19.862,19.841 -34.76,19.841m0,-992.039c9.932,-0 19.864,4.96 24.829,9.92c9.931,4.96 14.897,19.84 14.897,29.761l0,758.91l134.075,-248.01l-34.76,-124.005c-0,-9.92 -0,-24.8 9.931,-34.72c4.966,-9.921 14.897,-14.881 29.794,-14.881l148.972,-0l-9.931,-59.523c-39.726,-203.368 -213.526,-357.134 -417.121,-376.975l0,74.403l94.349,-14.88l4.965,-0" style="fill:#205081;fill-rule:nonzero;"/><rect x="11481.8" y="7439.91" width="635.751" height="874.945" style="fill:#f5f5f5;"/><path d="M12117.7,8354.72l-635.984,-0c-19.876,-0 -39.75,-19.89 -39.75,-39.779l0,-875.12c0,-19.89 19.874,-39.779 39.75,-39.779l635.984,0c19.875,0 39.749,19.889 39.749,39.779l-0,875.12c-0,19.889 -19.874,39.779 -39.749,39.779m-596.236,-79.557l556.487,-0l-0,-795.564l-556.487,-0l0,795.564" style="fill:#205081;fill-rule:nonzero;"/><path d="M11481.8,7062.24l-0,695.488c-0,-0 39.734,317.938 317.876,317.938c278.142,-0 317.876,-317.938 317.876,-317.938l-0,-695.488l-635.752,0" style="fill:#ffe1a4;fill-rule:nonzero;"/><path d="M11799.7,8115.53c-248.432,-0 -342.836,-228.57 -357.742,-352.792l0,-700.615c0,-19.876 19.874,-39.751 39.75,-39.751l635.984,0c19.875,0 39.749,19.875 39.749,39.751l-0,700.615c-14.906,124.222 -109.31,352.792 -357.741,352.792m-278.244,-362.73c4.969,29.814 49.686,283.227 278.244,283.227c228.557,0 273.274,-253.413 278.243,-283.227l-0,-650.926l-556.487,0l0,650.926" style="fill:#205081;fill-rule:nonzero;"/><path d="M12077.7,7192.32l-556.02,0l-0,243.501c84.396,24.847 168.792,39.756 263.116,39.756l14.894,-0c94.325,-0 188.65,-14.909 278.01,-39.756l0,-243.501" style="fill:#e8d2a0;fill-rule:nonzero;"/><path d="M11521.5,7192.32l-39.734,0l-0,228.489c14.9,4.968 24.834,9.934 39.734,14.902l0,-243.391m596.018,0l-39.734,0l-0,243.391c14.9,-4.968 24.833,-9.934 39.734,-14.902l-0,-228.489" style="fill:#205081;fill-rule:nonzero;"/><path d="M12992.9,6611.43l-0,-1366.45c-9.944,-645.96 -541.908,-1172.67 -1193.19,-1172.67c-651.283,0 -1183.25,526.707 -1193.19,1172.67l0,1366.45c-94.461,44.722 -159.092,144.1 -159.092,253.416c-0,159.006 129.262,288.198 288.354,288.198l79.547,-0l-0,387.576l14.914,-0c218.752,-0 392.759,-173.913 402.702,-387.576l1630.7,-0c159.091,-0 288.354,-129.192 288.354,-288.198c0,-109.316 -64.631,-208.694 -159.092,-253.416" style="fill:#a46d3d;fill-rule:nonzero;"/><path d="M10830.2,7580.49l-14.916,-0c-24.86,-0 -39.776,-19.877 -39.776,-39.754l0,-347.847l-39.775,0c-178.991,0 -328.15,-144.108 -328.15,-327.97c-0,-114.293 59.664,-218.647 159.103,-278.278l0,-1346.67c9.944,-323 139.215,-626.124 367.925,-849.74c233.682,-228.586 541.944,-357.787 865.121,-357.787c323.177,0 631.439,129.201 865.121,357.787c228.711,223.616 357.981,526.74 367.926,849.74l-0,1346.67c99.439,59.631 159.102,163.985 159.102,278.278c0,183.862 -149.158,327.97 -328.149,327.97l-1591.03,0c-29.831,218.647 -218.766,387.601 -442.504,387.601m-183.963,-2325.61l-0,1356.6c-0,14.908 -9.943,24.846 -19.888,34.785c-84.523,39.754 -139.214,124.231 -139.214,218.647c-0,139.139 109.383,248.462 248.598,248.462l79.551,0c19.888,0 39.776,19.877 39.776,39.754l-0,342.878c183.963,-9.939 333.121,-154.047 338.093,-342.878c4.972,-19.877 19.888,-39.754 39.776,-39.754l1630.8,0c139.215,0 248.598,-109.323 248.598,-248.462c0,-94.416 -54.692,-178.893 -139.215,-218.647c-9.944,-9.939 -19.888,-19.877 -19.888,-34.785l0,-1366.54c-9.944,-621.156 -527.028,-1132.99 -1153.5,-1132.99c-626.467,-0 -1143.55,511.832 -1153.5,1132.99l-0,9.938" style="fill:#205081;fill-rule:nonzero;"/><path d="M11799.7,4251.15c651.081,-0 1182.88,526.584 1192.82,1172.39l-0,-178.841c-9.94,-645.81 -541.74,-1172.39 -1192.82,-1172.39c-651.082,0 -1182.88,526.585 -1192.82,1172.39l-0,178.841c9.941,-645.811 541.74,-1172.39 1192.82,-1172.39" style="fill:#ce834d;fill-rule:nonzero;"/><path d="M10830.2,7580.49l-14.916,-0c-24.86,-0 -39.776,-19.877 -39.776,-39.754l0,-347.847l-39.775,0c-178.991,0 -328.15,-144.108 -328.15,-327.97c-0,-114.293 59.664,-218.647 159.103,-278.278l0,-1346.67c9.944,-323 139.215,-626.124 367.925,-849.74c233.682,-228.586 541.944,-357.787 865.121,-357.787c323.177,0 631.439,129.201 865.121,357.787c228.711,223.616 357.981,526.74 367.926,849.74l-0,1346.67c99.439,59.631 159.102,163.985 159.102,278.278c0,183.862 -149.158,327.97 -328.149,327.97l-1591.03,0c-29.831,218.647 -218.766,387.601 -442.504,387.601m-183.963,-2325.61l-0,1356.6c-0,14.908 -9.943,24.846 -19.888,34.785c-84.523,39.754 -139.214,124.231 -139.214,218.647c-0,139.139 109.383,248.462 248.598,248.462l79.551,0c19.888,0 39.776,19.877 39.776,39.754l-0,342.878c183.963,-9.939 333.121,-154.047 338.093,-342.878c4.972,-19.877 19.888,-39.754 39.776,-39.754l1630.8,0c139.215,0 248.598,-109.323 248.598,-248.462c0,-94.416 -54.692,-178.893 -139.215,-218.647c-9.944,-9.939 -19.888,-19.877 -19.888,-34.785l0,-1366.54c-9.944,-621.156 -527.028,-1132.99 -1153.5,-1132.99c-626.467,-0 -1143.55,511.832 -1153.5,1132.99l-0,9.938" style="fill:#205081;fill-rule:nonzero;"/><path d="M12953,6029.93l-2306.67,-0l-0,580.85c-0,14.894 -9.943,24.823 -19.885,34.752c-84.512,39.716 -139.197,124.113 -139.197,218.439c0,139.008 109.369,248.227 248.565,248.227l79.54,0c19.885,0 39.771,19.859 39.771,39.716l-0,342.553c183.936,-9.929 333.075,-153.9 338.046,-342.553c4.972,-19.857 19.885,-39.716 39.771,-39.716l1630.58,0c139.197,0 248.564,-109.219 248.564,-248.227c0,-94.326 -54.683,-178.723 -139.195,-218.439c-9.943,-9.929 -19.885,-19.858 -19.885,-34.752l-0,-580.85" style="fill:#906949;fill-rule:nonzero;"/><path d="M12992.9,6029.93l-39.773,-0l-0,581.419c-0,14.909 9.943,24.848 19.886,34.787c84.518,39.755 139.206,124.235 139.206,218.653c0,139.144 -109.376,248.47 -248.581,248.47l-1630.7,0c-19.886,0 -34.801,19.878 -39.772,39.756c-4.972,188.837 -154.121,332.949 -338.071,342.888l-0,-342.888c-0,-19.878 -19.887,-39.756 -39.773,-39.756l-79.547,0c-139.205,0 -248.581,-109.326 -248.581,-248.47c-0,-94.418 54.688,-178.898 139.205,-218.653c9.944,-9.939 19.887,-19.878 19.887,-34.787l-0,-581.419l-39.773,-0l0,581.419c-94.461,44.725 -159.092,144.113 -159.092,253.44c-0,159.021 129.262,288.226 288.354,288.226l79.547,-0l-0,387.613l14.914,-0c218.752,-0 392.759,-173.929 402.702,-387.613l1630.7,-0c159.091,-0 288.354,-129.205 288.354,-288.226c0,-109.327 -64.631,-208.715 -159.092,-253.44l-0,-581.419" style="fill:#205081;fill-rule:nonzero;"/><path d="M10804.1,5443.75l0,908.83c0,546.291 432.626,998.223 979.624,1008.15c556.943,9.933 1009.46,-437.033 1009.46,-993.257l0,-923.728c-427.653,-39.73 -775.742,-536.359 -775.742,-536.359c-0,0 -387.872,317.843 -1213.34,536.359" style="fill:#ffe1a4;fill-rule:nonzero;"/><path d="M11798.6,7400.05l-19.892,-0c-556.989,-9.931 -1014.52,-476.709 -1014.52,-1047.77l0,-908.727c0,-14.897 9.947,-29.794 29.839,-34.759c805.645,-213.526 1193.55,-526.367 1198.52,-531.333c9.946,-4.966 19.892,-9.931 29.838,-9.931c9.946,4.965 19.893,9.931 29.839,19.863c-0,4.966 338.172,481.675 745.967,516.435c19.892,4.966 34.812,19.863 34.812,39.725l-0,923.625c-0,278.08 -109.408,536.297 -303.36,729.96c-193.952,198.629 -452.554,302.909 -731.048,302.909Zm-954.838,-1926.7l0,878.932c0,526.367 422.715,963.35 939.919,968.316l14.919,-0c253.629,-0 497.312,-99.315 676.344,-278.081c179.032,-178.766 278.494,-417.12 278.494,-675.337l0,-888.865c-363.037,-49.657 -656.451,-402.222 -745.967,-511.469c-109.409,79.452 -482.392,322.773 -1163.71,506.504Z" style="fill:#205081;fill-rule:nonzero;"/><path d="M10804.1,5711c-133.367,0 -237.096,109.631 -237.096,239.194c0,134.546 103.729,239.193 237.096,239.193l-0,-478.387Z" style="fill:#ffe1a4;fill-rule:nonzero;"/><path d="M10804.4,6229.26c-153.463,-0 -277.224,-124.112 -277.224,-278.011c0,-153.898 123.761,-278.011 277.224,-278.011c19.801,0 39.603,19.859 39.603,39.716l-0,476.59c-0,24.822 -19.802,39.716 -39.603,39.716Zm-39.604,-471.625c-89.108,19.857 -158.413,99.289 -158.413,193.614c0,99.289 69.305,178.721 158.413,198.579l-0,-392.193Z" style="fill:#205081;fill-rule:nonzero;"/><path d="M12793.2,5711c134.546,0 239.193,109.631 239.193,239.194c-0,134.546 -104.647,239.193 -239.193,239.193l-0,-478.387Z" style="fill:#ffe1a4;fill-rule:nonzero;"/><path d="M12793.2,6229.26c-19.932,-0 -39.865,-14.894 -39.865,-39.716l0,-476.59c0,-19.857 19.933,-39.716 39.865,-39.716c154.48,0 279.06,124.113 279.06,278.011c-0,153.899 -124.58,278.011 -279.06,278.011Zm39.866,-471.625l-0,392.193c89.697,-19.858 159.462,-99.29 159.462,-198.579c0,-94.325 -69.765,-173.757 -159.462,-193.614Z" style="fill:#205081;fill-rule:nonzero;"/><path d="M11431.6,5859.79c-38.895,-38.896 -102.051,-38.896 -140.946,-0.001c-38.896,38.895 -38.896,102.051 -0.001,140.947c38.895,38.895 102.051,38.895 140.947,0c38.895,-38.895 38.895,-102.051 -0,-140.946Z" style="fill:#205081;"/><path d="M12306.6,5859.79c-38.895,-38.895 -102.051,-38.896 -140.946,-0.001c-38.895,38.896 -38.895,102.051 -0,140.946c38.895,38.896 102.051,38.896 140.946,0.001c38.895,-38.895 38.895,-102.051 -0,-140.946Z" style="fill:#205081;"/><path d="M11519.8,5752.2c-19.828,-0 -39.656,-9.929 -39.656,-29.785c-9.914,-49.64 -59.484,-89.351 -118.967,-89.351c-54.527,-0 -109.054,39.711 -118.968,89.351c-4.957,19.856 -24.785,34.749 -44.612,29.785c-19.829,-0 -34.7,-24.82 -34.7,-44.676c14.871,-84.389 104.097,-153.885 198.28,-153.885c94.182,0 183.408,69.496 198.279,153.885c-0,19.856 -14.871,39.712 -34.699,44.676l-4.957,-0Z" style="fill:#205081;fill-rule:nonzero;"/><path d="M12396.6,5752.2c-19.933,-0 -39.866,-9.929 -39.866,-29.785c-9.967,-49.64 -59.799,-89.351 -119.597,-89.351c-54.815,-0 -109.63,39.711 -119.597,89.351c-4.983,19.856 -24.916,34.749 -44.848,29.785c-19.933,-0 -34.884,-24.82 -34.884,-44.676c14.951,-84.389 104.648,-153.885 199.329,-153.885c94.681,0 184.378,69.496 199.328,153.885c0,19.856 -14.95,39.712 -34.883,44.676l-4.982,-0Z" style="fill:#205081;fill-rule:nonzero;"/><path d="M11798.6,6974.11c114.614,-0 214.279,-79.732 234.211,-189.363c4.983,-24.916 -14.95,-49.831 -39.865,-49.831l-388.69,-0c-24.916,-0 -44.849,24.915 -39.866,49.831c19.933,109.631 119.597,189.363 234.21,189.363" style="fill:#205081;fill-rule:nonzero;"/><path d="M11899.2,6476.84l-220.031,-0c-20.003,-0 -40.005,-14.919 -40.005,-39.783l0,-417.707c0,-19.891 20.002,-39.782 40.005,-39.782c20.003,0 40.005,19.891 40.005,39.782l0,377.926l140.02,0l0,-79.563c0,-19.891 20.002,-39.782 40.006,-39.782c20.002,-0 40.005,19.891 40.005,39.782l0,119.344c0,24.864 -20.003,39.783 -40.005,39.783Z" style="fill:#205081;fill-rule:nonzero;"/><path d="M10557.7,8327.08l-2041.84,0l-0,-347.738c-0,-382.512 313.236,-695.475 696.081,-695.475l649.676,-0c382.844,-0 696.081,312.963 696.081,695.475l-0,347.738" style="fill:#59afe1;fill-rule:nonzero;"/><path d="M10557.8,8373.61l-2042.05,-0c-23.205,-0 -46.41,-23.189 -46.41,-46.378l-0,-347.839c-0,-411.608 330.673,-742.053 742.564,-742.053l649.744,-0c411.891,-0 742.564,330.445 742.564,742.053l-0,347.839c-0,23.189 -23.206,46.378 -46.411,46.378m-1995.64,-92.757l1949.23,-0l0,-301.46c0,-359.432 -290.064,-649.297 -649.743,-649.297l-649.744,-0c-359.679,-0 -649.743,289.865 -649.743,649.297l-0,301.46" style="fill:#205081;fill-rule:nonzero;"/><path d="M8702.43,7580.18c-57.79,69.701 -98.243,151.019 -115.58,238.146l231.16,-0l-46.232,162.636l242.718,302.04l69.348,-0l-213.823,-394.975c-5.779,-11.616 -5.779,-23.233 -5.779,-34.85l28.895,-104.552l-167.591,-0c-11.558,-0 -28.895,-5.809 -34.674,-17.426c-11.558,-11.617 -11.558,-23.233 -11.558,-40.659l23.116,-110.36" style="fill:#4e9cce;fill-rule:nonzero;"/><path d="M9084.22,8280.78l-69.629,0l34.814,46.294l63.826,0l-29.011,-46.294m-359.746,-798.562c-92.838,92.587 -156.664,208.321 -191.477,335.628l52.221,0c17.407,-86.8 58.023,-167.814 116.046,-237.254l0,-11.574c5.803,-28.933 17.408,-57.866 23.21,-86.8" style="fill:#205081;fill-rule:nonzero;"/><path d="M10373,7580.18l23.229,110.36c0,17.426 0,29.042 -11.614,40.659c-5.808,11.617 -23.23,17.426 -34.845,17.426l-168.417,-0l29.037,104.552c0,11.617 0,23.234 -5.807,34.85l-214.876,394.975l69.689,-0l243.914,-302.04l-46.46,-162.636l232.299,-0c-17.423,-87.127 -58.074,-168.445 -116.149,-238.146" style="fill:#4e9cce;fill-rule:nonzero;"/><path d="M10059,8280.78l-69.629,0l-29.012,46.294l63.826,0l34.815,-46.294m290.117,-798.562c5.802,28.934 17.407,57.867 23.209,86.8l-0,11.574c58.023,69.44 98.64,150.454 116.047,237.254l52.221,0c-34.814,-127.307 -98.64,-243.041 -191.477,-335.628" style="fill:#205081;fill-rule:nonzero;"/><path d="M9328.67,7100.2c-284.915,-0 -529.127,202.55 -581.459,474.547l-23.258,127.317l232.583,0l-46.517,162.041l255.842,462.973l0,-1064.84l162.809,23.149l0,-185.189" style="fill:#59afe1;fill-rule:nonzero;"/><path d="M9165.86,8373.61c-17.444,0 -34.888,-11.578 -40.702,-23.156l-255.842,-463.136c-5.815,-11.578 -5.815,-23.156 -5.815,-34.735l29.073,-104.205l-168.622,0c-11.63,0 -29.073,-5.789 -34.888,-17.368c-11.629,-11.578 -11.629,-23.156 -11.629,-40.523l23.258,-121.574c58.146,-301.037 319.803,-515.237 627.975,-515.237c23.259,-0 46.517,23.156 46.517,46.313l0,185.254c0,11.578 -5.814,28.946 -17.444,34.735c-11.629,11.578 -23.258,11.578 -34.887,11.578l-110.477,-17.367l-0,1013.11c-0,23.157 -11.629,40.525 -34.888,46.313l-11.629,0m-203.51,-515.237l156.993,289.459l0,-885.746c0,-11.578 5.815,-28.945 17.444,-34.735c11.629,-11.578 23.258,-11.578 34.888,-11.578l110.477,17.368l0,-86.839c-238.398,23.157 -441.909,202.622 -488.426,439.978l-11.628,69.471l174.437,-0c17.443,-0 29.073,5.789 34.888,17.368c11.628,11.578 11.628,28.945 11.628,40.524l-40.701,144.73" style="fill:#205081;fill-rule:nonzero;"/><path d="M9744.87,7100.2c284.914,-0 529.127,202.55 581.458,474.547l23.258,127.317l-232.583,0l46.517,162.041l-255.842,462.973l-0,-1064.84l-162.808,23.149l-0,-185.189" style="fill:#59afe1;fill-rule:nonzero;"/><path d="M9907.68,8373.61l-11.63,0c-23.259,-5.788 -34.888,-23.156 -34.888,-46.313l0,-1013.11l-110.477,17.367c-11.629,0 -23.258,0 -34.887,-11.578c-11.629,-5.789 -17.444,-23.157 -17.444,-34.735l-0,-185.254c-0,-23.157 23.258,-46.313 46.517,-46.313c308.172,-0 569.829,214.2 627.975,515.237l23.258,121.574c0,17.367 0,28.945 -11.628,40.523c-5.816,11.579 -23.259,17.368 -34.889,17.368l-168.622,0l29.073,104.205c-0,11.579 -0,23.157 -5.815,34.735l-255.842,463.136c-5.814,11.578 -23.258,23.156 -40.701,23.156m-0,-1157.84c11.628,-0 23.257,5.789 29.072,11.578c11.629,5.79 17.444,23.157 17.444,34.735l-0,885.746l156.993,-289.459l-40.701,-144.73c-0,-11.579 -0,-28.946 11.628,-40.524c5.816,-11.579 17.444,-17.368 34.889,-17.368l174.436,-0l-11.628,-69.471c-46.517,-237.356 -250.027,-416.821 -488.425,-439.978l-0,86.839l110.476,-17.368l5.816,-0" style="fill:#205081;fill-rule:nonzero;"/><rect x="9164.64" y="7283.86" width="744.266" height="1021.17" style="fill:#f5f5f5;"/><path d="M9908.91,8351.57l-744.267,-0c-23.259,-0 -46.516,-23.214 -46.516,-46.426l-0,-1021.38c-0,-23.214 23.257,-46.426 46.516,-46.426l744.267,-0c23.259,-0 46.517,23.212 46.517,46.426l0,1021.38c0,23.212 -23.258,46.426 -46.517,46.426m-697.75,-92.853l651.234,0l-0,-928.525l-651.234,0l0,928.525" style="fill:#205081;fill-rule:nonzero;"/><path d="M9164.64,6843.07l-0,465.282l372.133,369.779l372.134,-369.779l-0,-465.282l-744.267,-0Z" style="fill:#ffe1a4;fill-rule:nonzero;"/><path d="M9536.77,7724.66c-11.63,-0 -23.259,-5.786 -34.887,-11.571l-372.134,-370.267c-5.815,-11.572 -11.629,-23.142 -11.629,-34.713l-0,-462.834c-0,-23.141 23.257,-46.284 46.516,-46.284l744.267,0c23.259,0 46.517,23.143 46.517,46.284l0,462.834c0,11.571 -5.814,23.141 -11.629,34.713l-372.134,370.267c-11.629,5.785 -23.258,11.571 -34.887,11.571m-325.617,-433.907l325.617,323.984l325.617,-323.984l-0,-399.194l-651.234,-0l0,399.194" style="fill:#205081;fill-rule:nonzero;"/><path d="M9211.16,7256.93l0,22.856c98.848,28.57 197.695,45.712 308.173,45.712l23.258,0c110.478,0 220.955,-17.142 319.803,-45.712l-0,-11.428c-98.848,28.57 -197.696,39.998 -302.359,39.998l-23.258,0c-110.477,0 -220.955,-17.142 -325.617,-51.426" style="fill:#e8d2a0;fill-rule:nonzero;"/><path d="M9908.91,7255.18c-17.444,5.947 -29.073,11.894 -46.517,11.894l-0,11.895c17.444,-5.947 29.073,-11.895 46.517,-17.842l-0,-5.947m-744.268,-17.841l-0,23.788c17.444,5.947 29.073,11.895 46.517,17.842l0,-23.789c-17.444,-5.947 -29.073,-11.895 -46.517,-17.841" style="fill:#205081;fill-rule:nonzero;"/><path d="M9744.87,8283l-416.203,-0l80.793,-394.266l254.618,-0l80.792,394.266Z" style="fill:#4ac6c6;fill-rule:nonzero;"/><path d="M9745.1,8327.08l-416.647,0c-11.574,0 -28.934,-5.772 -34.721,-17.317c-11.574,-11.544 -11.574,-23.089 -11.574,-40.406l81.016,-392.517c5.786,-17.317 23.147,-34.634 46.293,-34.634l254.618,0c23.147,0 40.508,17.317 46.294,34.634l81.015,392.517c-0,17.317 -0,28.862 -11.574,40.406c-5.787,11.545 -23.146,17.317 -34.72,17.317m-358.779,-92.357l300.911,0l-63.654,-300.16l-173.603,0l-63.654,300.16" style="fill:#205081;fill-rule:nonzero;"/><path d="M9536.77,7678.13l354.996,355.084l-354.996,-355.084Z" style="fill:#cc8352;fill-rule:nonzero;"/><path d="M9891.02,8079.74c-11.59,-0 -23.18,-5.808 -34.771,-11.617l-353.508,-354.299c-17.386,-17.425 -17.386,-52.273 -0,-69.698c17.385,-17.425 52.157,-17.425 69.543,-0l353.508,354.3c17.386,17.424 17.386,52.273 0,69.697c-11.59,5.809 -23.181,11.617 -34.772,11.617Z" style="fill:#205081;fill-rule:nonzero;"/><path d="M9536.77,7678.13l-352.547,355.084l352.547,-355.084Z" style="fill:#cc8352;fill-rule:nonzero;"/><path d="M9182.52,8079.74c-11.591,-0 -23.181,-5.808 -34.771,-11.617c-17.386,-17.424 -17.386,-52.273 -0,-69.697l353.508,-354.3c17.385,-17.425 52.156,-17.425 69.542,-0c17.386,17.425 17.386,52.273 -0,69.698l-353.508,354.299c-11.591,5.809 -23.181,11.617 -34.771,11.617Z" style="fill:#205081;fill-rule:nonzero;"/><path d="M9624.21,7935.26l-174.874,-0l-34.976,150.634l58.292,57.937c17.488,17.381 40.805,28.968 64.121,28.968c23.316,0 46.633,-11.587 64.121,-28.968l58.291,-57.937l-34.975,-150.634" style="fill:#42aeb8;fill-rule:nonzero;"/><path d="M9536.77,7852c-23.213,0 -46.426,11.632 -63.836,29.08l-69.639,63.977c-17.41,17.447 -23.213,40.712 -23.213,63.976l-0,5.816c-0,23.265 5.803,46.528 23.213,63.977l11.606,5.816l34.82,-151.217l174.098,-0l34.819,151.217l11.607,-5.816c17.409,-17.449 23.213,-40.712 23.213,-63.977l0,-5.816c0,-23.264 -5.804,-46.529 -23.213,-63.976l-69.639,-63.977c-17.41,-17.448 -40.623,-29.08 -63.836,-29.08" style="fill:#205081;fill-rule:nonzero;"/><path d="M9503.17,8037.84l-127.703,-127.736c-17.414,-17.419 -17.414,-46.449 -0,-69.674l127.703,-127.736c17.414,-17.418 52.243,-17.418 69.657,-0l127.704,127.736c17.414,23.225 17.414,52.255 0,69.674l-127.704,127.736c-17.414,17.418 -52.243,17.418 -69.657,-0" style="fill:#4ac6c6;fill-rule:nonzero;"/><path d="M9536.77,8101.78c-23.101,0 -46.202,-11.592 -63.528,-28.983l-132.833,-133.323c-17.326,-17.39 -28.878,-40.577 -28.878,-63.763c0,-23.187 11.552,-46.373 28.878,-63.764l132.833,-133.323c34.652,-34.78 92.405,-34.78 127.057,-0l132.833,133.323c17.326,17.391 28.877,40.577 28.877,63.764c0,23.186 -11.551,46.373 -28.877,63.763l-132.833,133.323c-17.326,17.391 -40.427,28.983 -63.529,28.983Zm0,-359.392l-132.833,133.323l132.833,133.323l132.834,-133.323l-132.834,-133.323Z" style="fill:#205081;fill-rule:nonzero;"/><path d="M11184.4,4004.28l-423.308,-0c-121.773,-214.489 -347.924,-359.415 -608.868,-359.415l-997.382,0c-197.157,0 -359.522,162.317 -359.522,359.415l-162.365,-0c-197.156,-0 -359.521,156.52 -359.521,353.619l0,1339.11l2574.64,0l-0,-1182.59c197.157,-86.956 336.327,-284.054 336.327,-510.138" style="fill:#ce834d;fill-rule:nonzero;"/><path d="M10848.2,5743.53l-2574.86,0c-23.197,0 -46.394,-17.394 -46.394,-46.383l0,-1339.3c0,-220.318 179.776,-400.05 405.946,-400.05l115.985,0c23.197,-202.925 197.173,-359.466 405.945,-359.466l997.467,-0c260.966,-0 498.734,139.148 632.116,359.466l400.147,0c23.196,0 46.394,17.393 46.394,46.382c-0,226.116 -133.383,434.838 -336.355,539.199l-0,1153.77c-0,28.989 -23.198,46.383 -46.394,46.383m-2528.46,-92.765l2482.07,-0l0,-1136.38c0,-17.393 11.599,-34.787 28.997,-46.382c173.977,-69.574 289.962,-231.914 307.359,-417.444l-376.949,-0c-17.398,-0 -34.796,-11.597 -40.595,-23.192c-115.985,-208.723 -330.556,-336.275 -568.325,-336.275l-997.467,-0c-173.976,-0 -313.158,139.149 -313.158,313.083c0,23.192 -23.196,46.384 -46.394,46.384l-162.378,-0c-173.976,-0 -313.158,139.147 -313.158,307.284l-0,1292.92" style="fill:#205081;fill-rule:nonzero;"/><path d="M9108.21,3696.29c-150.69,17.397 -266.604,150.769 -266.604,307.335c-0,23.196 -23.184,46.391 -46.366,46.391l-162.281,0c-173.872,0 -312.969,139.17 -312.969,307.335l-0,1293.13l34.774,0l0,-742.243c0,-150.768 127.506,-278.342 278.195,-278.342l1854.63,0c150.688,0 278.195,127.574 278.195,278.342l-0,-150.768c-0,-156.568 -121.711,-278.342 -278.195,-278.342l-1147.56,-0c-127.505,-0 -231.828,-104.378 -231.828,-231.952l-0,-550.884" style="fill:#8f694b;fill-rule:nonzero;"/><path d="M9108.33,3649.76c-173.927,17.398 -313.069,168.188 -313.069,353.773l-162.333,-0c-197.118,-0 -359.45,156.589 -359.45,353.773l0,1339.7l81.166,0l0,-46.396l-34.785,-0l0,-1293.3c0,-168.187 139.142,-307.376 313.069,-307.376l162.333,-0c23.19,-0 46.381,-23.199 46.381,-46.397c-0,-156.588 115.951,-289.978 266.688,-307.376l0,-46.397" style="fill:#205081;fill-rule:nonzero;"/><path d="M8400.79,4907.82l-0,1177.33c-0,632.161 504.272,1165.73 1141.86,1177.33c649.176,11.598 1176.63,-510.369 1176.63,-1159.93l-0,-1194.73c-0,-127.592 -104.332,-231.985 -231.849,-231.985l-1854.79,-0c-127.517,-0 -231.849,104.393 -231.849,231.985" style="fill:#ffe1a4;fill-rule:nonzero;"/><path d="M9560.03,7308.35l-23.188,0c-649.256,-11.598 -1182.57,-562.485 -1182.57,-1223.55l0,-1177.16c0,-150.769 127.533,-278.343 278.253,-278.343l1855.02,0c150.72,0 278.253,127.574 278.253,278.343l-0,1194.56c-0,324.734 -127.533,626.272 -353.613,852.426c-226.081,226.153 -527.521,353.727 -852.149,353.727m-927.509,-2586.27c-104.345,0 -185.502,86.982 -185.502,185.562l-0,1177.16c-0,614.674 492.739,1119.17 1095.62,1130.77c301.44,5.799 591.287,-110.177 805.774,-324.733c208.689,-214.556 324.627,-492.899 324.627,-788.639l0,-1194.56c0,-98.58 -81.156,-185.562 -185.501,-185.562l-1855.02,0" style="fill:#205081;fill-rule:nonzero;"/><path d="M10487.3,4722.36l-1854.55,-0c-104.318,-0 -185.454,86.999 -185.454,185.598l-0,34.799c40.568,-57.999 110.114,-92.799 185.454,-92.799l1854.55,0c75.341,0 144.887,34.8 185.454,92.799l0,-34.799c0,-98.599 -81.136,-185.598 -185.454,-185.598" style="fill:#e8d2a0;fill-rule:nonzero;"/><path d="M10493.2,4675.83l-1866.39,-0c-121.72,5.807 -226.052,104.531 -226.052,232.291l-0,174.22c-0,-52.267 17.388,-98.725 46.369,-139.376l0,-34.844c0,-98.723 81.148,-185.833 185.48,-185.833l1854.79,0c104.332,0 185.48,87.11 185.48,185.833l-0,34.844c28.981,40.651 46.369,87.109 46.369,139.376l-0,-174.22c-0,-127.76 -104.332,-226.484 -226.052,-232.291" style="fill:#205081;fill-rule:nonzero;"/><path d="M8400.79,5389.41c-156.994,0 -279.1,176.966 -279.1,386.108c-0,217.184 122.106,386.107 279.1,386.107l0,-772.215Z" style="fill:#ffe1a4;fill-rule:nonzero;"/><path d="M8400.79,6226.26c-180.252,0 -325.616,-201.224 -325.616,-450.742c-0,-249.518 145.364,-450.742 325.616,-450.742c23.258,0 46.517,32.196 46.517,64.392l-0,772.701c-0,40.245 -23.259,64.391 -46.517,64.391Zm-46.517,-764.651c-104.663,32.196 -186.066,160.979 -186.066,313.909c-0,160.979 81.403,289.763 186.066,321.959l0,-635.868Z" style="fill:#205081;fill-rule:nonzero;"/><path d="M10719.3,5371.31c156.994,0 279.1,170.685 279.1,372.403c0,209.476 -122.106,372.402 -279.1,372.402l0,-744.805Z" style="fill:#ffe1a4;fill-rule:nonzero;"/><path d="M10719.3,6233.19c-23.258,-0 -46.517,-24.332 -46.517,-64.886l0,-778.639c0,-32.443 23.259,-64.886 46.517,-64.886c180.253,0 325.617,202.77 325.617,454.206c0,251.435 -145.364,454.205 -325.617,454.205Zm46.518,-770.527l-0,640.754c104.662,-32.443 186.066,-162.216 186.066,-324.432c0,-154.106 -81.404,-283.879 -186.066,-316.322Z" style="fill:#205081;fill-rule:nonzero;"/><path d="M9130.94,5486.19c44.936,45.426 44.936,119.076 -0,164.502c-44.936,45.426 -117.793,45.426 -162.73,-0c-44.936,-45.426 -44.936,-119.076 0,-164.502c44.937,-45.426 117.794,-45.426 162.73,-0Z" style="fill:#205081;fill-rule:nonzero;"/><path d="M10151.9,5486.19c44.936,45.426 44.936,119.076 -0,164.502c-44.937,45.426 -117.793,45.426 -162.73,-0c-44.937,-45.426 -44.937,-119.076 0,-164.502c44.937,-45.426 117.793,-45.426 162.73,-0Z" style="fill:#205081;fill-rule:nonzero;"/><path d="M9235.64,5360.61c-23.258,-0 -46.516,-17.381 -46.516,-40.556c-11.63,-52.142 -69.776,-98.492 -139.551,-98.492c-63.96,0 -127.92,46.35 -139.55,98.492c-5.814,28.969 -29.073,46.349 -52.331,40.556c-23.258,-5.794 -40.702,-28.969 -40.702,-52.143c17.444,-104.285 122.106,-179.602 232.583,-179.602c110.478,-0 215.14,75.317 232.584,179.602c0,23.174 -17.444,46.349 -40.703,52.143l-5.814,-0Z" style="fill:#205081;fill-rule:nonzero;"/><path d="M10256.6,5360.61c-23.258,-0 -46.516,-17.381 -46.516,-40.556c-11.63,-52.142 -69.776,-98.492 -139.55,-98.492c-63.961,0 -127.921,46.35 -139.551,98.492c-5.814,28.969 -29.073,46.349 -52.331,40.556c-23.258,-5.794 -40.702,-28.969 -40.702,-52.143c17.444,-104.285 122.106,-179.602 232.584,-179.602c110.477,-0 215.139,75.317 232.583,179.602c0,23.174 -17.444,46.349 -40.703,52.143l-5.814,-0Z" style="fill:#205081;fill-rule:nonzero;"/><path d="M9560.03,6345.95c-127.247,-0 -231.36,-104.572 -231.36,-232.382l0,-267.238c0,-23.238 23.137,-46.476 46.272,-46.476c23.137,0 46.272,23.238 46.272,46.476l0,267.238c0,75.524 63.624,139.429 138.816,139.429c75.192,-0 138.816,-63.905 138.816,-139.429c-0,-23.238 23.136,-46.476 46.272,-46.476c23.135,-0 46.272,23.238 46.272,46.476c-0,127.81 -104.113,232.382 -231.36,232.382Z" style="fill:#205081;fill-rule:nonzero;"/><path d="M9560.03,6867.56c133.149,0 248.93,-98.872 272.087,-226.826c5.789,-29.079 -17.368,-52.344 -46.312,-52.344l-451.55,0c-28.944,0 -52.101,23.265 -46.312,52.344c23.156,127.954 138.938,226.826 272.087,226.826" style="fill:#205081;fill-rule:nonzero;"/></g></svg>